<svg width="157" height="370" viewBox="0 0 157 370" fill="none" xmlns="http://www.w3.org/2000/svg">
<path d="M74.566 0.255897C69.7562 0.944651 65.0547 2.43163 60.9811 5.1342C57.5679 7.39861 54.6211 10.295 52.3128 13.6792C42.383 28.2354 46.9623 49.0049 62.1132 58.0366C68.6204 61.9158 76.2147 63.0158 83.6226 61.8694C87.6128 61.2517 91.5332 59.6483 94.9434 57.5226C114.003 45.6434 113.674 16.324 94.566 4.69978C91.5494 2.86465 88.2294 1.46846 84.7547 0.776538C81.4826 0.124953 77.883 -0.219122 74.566 0.255897ZM39.8491 129.906C40.4555 131.957 40.2264 134.192 40.2264 136.321V147.264V183.113C40.2264 212.539 40.5747 242.023 39.8547 271.415C39.6551 279.56 40.3721 287.815 39.8151 295.943C38.8362 310.24 39.3294 324.641 38.7023 338.962C38.4079 345.683 36.6694 353.667 39.2653 360.094C45.5381 375.626 70.8106 371.668 73.3223 355.566C73.8351 352.277 73.6815 349.061 73.826 345.755C74.1894 337.461 74.2174 329.149 74.5808 320.849C75.8842 291.092 75.6981 261.24 75.6981 231.415H80.9811C80.9811 260.592 80.8234 289.845 82.0985 318.962C82.4509 327.012 82.5008 335.071 82.8532 343.113C82.9902 346.242 82.6072 349.433 82.9755 352.547C83.5094 357.057 84.6106 361.194 87.8826 364.558C94.723 371.585 108.623 372.053 115.068 364.23C119.695 358.616 118.34 352.038 118.34 345.377C118.34 330.914 117.208 316.458 117.208 301.981C117.208 287.295 116.629 272.514 116.454 257.83C116.214 237.588 116.943 217.312 116.447 197.075C116.361 193.556 115.79 190.029 115.704 186.509C115.214 166.518 115.321 146.514 115.321 126.509C118.234 130.926 120.072 136.163 121.517 141.226C124.419 151.393 125.87 162.366 125.887 172.925C125.893 176.901 125.822 181.043 125.445 185C125.025 189.423 124.211 194.299 126.943 198.208C133.997 208.297 151.385 204.322 155.185 193.302C156.318 190.018 156.252 186.533 156.486 183.113C156.921 176.781 156.747 170.573 156.468 164.245C155.054 132.234 140.905 93.6939 108.528 81.4845C104.854 80.0988 101.085 78.9215 97.2076 78.2392C90.3502 77.0324 82.2864 75.3445 75.3208 76.0075C64.6272 77.0253 53.7359 78.843 44 83.5883C20.2083 95.1845 8.33434 121.079 3.32038 145.755C0.829061 158.017 0.0890606 170.649 0.947174 183.113C1.47434 190.764 2.34755 197.571 9.66038 201.806C16.6264 205.84 28.2645 204.494 31.5732 196.321C33.1728 192.37 32.3785 188.343 31.9887 184.245C31.7743 181.993 32.0087 179.711 31.9098 177.453C31.826 175.546 31.4491 173.718 31.5811 171.792C32.1985 162.766 32.7974 153.858 34.8996 145C36.1283 139.823 38.6328 135.027 39.8491 129.906Z" fill="#010101"/>
</svg>
