<svg width="145" height="370" viewBox="0 0 145 370" fill="none" xmlns="http://www.w3.org/2000/svg">
<path d="M67.3258 367.661C66.4891 367.632 65.7122 367.671 65.4199 368.661C65.1013 369.741 65.7006 371.112 65.7473 372.218C65.8682 375.09 65.512 377.482 66.0715 380.356C66.719 383.683 66.9965 387.384 67.0122 390.773C67.02 392.439 66.5414 395.047 67.3818 396.534C68.1262 397.853 69.7864 398.458 71.0849 398.972C74.8114 400.444 79.0673 399.887 82.9887 399.887C84.4876 399.887 86.562 400.262 87.9683 399.646C89.2194 399.096 89.9693 397.345 90.8202 396.307C93.4052 401.469 102.223 401.336 103.248 395.004C104.396 387.921 101.144 381.899 98.8649 375.474C96.8735 369.859 95.7759 363.57 96.1737 357.57C96.425 353.778 98.1028 350.487 98.8239 346.828C100.612 337.756 102.61 328.749 104.964 319.811C106.535 313.85 108.494 308.002 109.515 301.907C110.214 297.735 110.408 293.442 110.23 289.212C110.125 286.716 109.734 284.243 109.947 281.727C110.092 280.022 111.648 279.209 111.79 277.494C112.182 272.765 111.621 267.918 111.821 263.171C112.155 255.241 113.324 247.292 114.225 239.409C114.931 233.236 115.192 226.96 116.367 220.854C117.073 217.184 117.342 213.484 117.893 209.787C119.199 201.037 120.418 192.248 119.416 183.42C118.927 179.11 117.822 172.341 122.459 170.074C122.07 168.117 121.363 166.172 121.047 164.215C120.84 162.934 121.185 161.886 120.642 160.634C119.67 158.395 117.671 157.015 116.585 154.775C112.265 145.863 108.723 135.513 111.265 125.479C111.897 122.985 112.177 119.884 114.001 117.992C114.003 121.563 113.985 125.516 114.404 129.059C115.267 136.357 117.632 143.383 120.134 150.218C120.915 152.352 121.436 154.64 122.34 156.715C122.974 158.17 124.186 159.194 124.864 160.634C128.277 167.885 131.917 176.917 132.456 185.048C132.564 186.684 132.691 188.647 132.361 190.256C131.569 194.128 129.453 197.756 128.528 201.649C128.056 203.637 127.527 205.778 127.488 207.834C127.445 210.17 127.916 212.31 127.548 214.67C127.329 216.083 126.51 219.082 127.48 220.331C128.128 221.165 129.736 220.6 130.604 220.529C130.268 221.081 129.928 221.626 129.573 222.165C129.157 222.795 127.662 225.583 129.683 224.921C131.86 224.208 132.774 221.802 135.303 222.156C134.497 224.731 133.434 226.973 134.363 229.643C137.89 227.786 138.283 223.188 140.579 220.307C141.157 219.582 142.094 219.547 142.807 219.032C143.966 218.195 144.314 217.031 144.387 215.646C143.447 215.49 142.618 215.191 142.621 214.012C142.626 212.367 144.181 211.302 144.565 209.787C145.158 207.446 144.345 203.645 143.792 201.324C142.368 195.339 141.913 189.23 141.206 183.095C140.659 178.343 139.721 173.54 139.403 168.772C139.166 165.216 138.603 161.584 138.506 158.03C138.481 157.137 138.824 156.312 138.848 155.426C138.897 153.567 138.277 151.675 137.849 149.892C136.631 144.831 134.749 139.958 133.541 134.919C131.543 126.586 130.256 117.759 129.692 109.203C129.557 107.147 129.772 105.074 129.636 103.018C129.506 101.049 128.982 99.1206 128.776 97.159C128.164 91.2991 127.539 85.3748 126.47 79.5813C125.588 74.803 125.092 70.0763 122.426 65.9097C117.7 58.5211 107.734 60.9124 100.531 59.0325C98.4232 58.4824 93.8456 57.5973 92.7207 55.4239C92.0945 54.2139 92.9315 52.2391 93.002 50.936C93.2184 46.9241 93.4838 42.9248 93.314 38.892C92.8125 26.9955 88.1907 14.2433 80.1741 5.68955C78.6523 4.06605 77.3372 1.90239 75.4705 0.677736C73.8494 -0.385787 71.0517 0.15581 69.2053 0.15581H54.4822C52.7339 0.15581 49.4713 -0.509762 48.1497 0.91031C46.5862 2.59053 45.6853 5.25131 44.6938 7.31712C42.2375 12.4347 40.2925 18.0237 39.0241 23.5928C38.3181 26.6934 38.08 29.9848 37.2405 33.0327C35.2099 40.403 30.9111 46.6321 28.593 53.8656C27.7553 56.4799 27.1874 59.9085 26.9856 62.6545C26.8948 63.8895 27.3108 65.023 26.8678 66.2352C25.8604 68.9926 22.9747 70.5131 21.9312 73.3965C20.4699 77.4342 26.0474 80.5588 24.4551 84.464C23.2582 87.3988 19.9367 90.0013 17.8432 92.2763C14.0139 96.4377 10.4465 100.874 6.55243 104.971C3.68016 107.993 0 111.432 0 116.039C0 119.633 2.3817 123.612 5.31286 125.451C6.97658 126.495 8.94321 126.997 10.626 128.059C12.0598 128.964 13.6587 131.06 15.3127 131.395C16.9476 131.727 17.835 129.537 19.7105 130.073C24.0485 131.313 28.2929 133.195 32.5541 134.702C33.4973 135.036 34.4562 135.341 35.0166 136.264C35.9035 137.725 35.7779 139.787 37.5797 140.536C39.0599 141.151 40.2982 139.962 41.7279 140.211C44.1234 140.627 46.2936 143.308 47.9022 145.01C48.5181 145.661 49.3238 146.37 49.5615 147.288C49.924 148.687 48.6553 150.145 47.9489 151.194C46.2548 153.71 45.1242 156.552 43.9038 159.332C40.2794 167.587 36.9394 177.4 38.3303 186.675C41.2708 206.288 48.9823 224.89 51.2603 244.617C51.941 250.515 52.7712 256.582 52.9112 262.52C53.2523 276.984 52.0886 291.467 54.3061 305.814C56.384 319.255 60.5165 332.037 63.6835 345.201C65.4609 352.59 67.3248 359.979 67.3258 367.661Z" fill="#020202"/>
</svg>
