<svg width="112" height="370" viewBox="0 0 112 370" fill="none" xmlns="http://www.w3.org/2000/svg">
<line x1="0.5" y1="370" x2="0.499983" y2="1" stroke="black"/>
<line x1="1" y1="0.5" x2="112" y2="0.5" stroke="black"/>
<line x1="1" y1="158.5" x2="97" y2="158.5" stroke="black"/>
<line x1="1" y1="256.5" x2="56" y2="256.5" stroke="black"/>
<path d="M1.90341 13V12.233L4.78409 9.07955C5.12216 8.71023 5.40057 8.3892 5.61932 8.11648C5.83807 7.84091 6 7.58239 6.10511 7.34091C6.21307 7.09659 6.26705 6.84091 6.26705 6.57386C6.26705 6.26705 6.19318 6.00142 6.04545 5.77699C5.90057 5.55256 5.7017 5.37926 5.44886 5.2571C5.19602 5.13494 4.91193 5.07386 4.59659 5.07386C4.26136 5.07386 3.96875 5.14347 3.71875 5.28267C3.47159 5.41903 3.27983 5.6108 3.14347 5.85795C3.00994 6.10511 2.94318 6.39489 2.94318 6.72727H1.9375C1.9375 6.21591 2.0554 5.76705 2.29119 5.38068C2.52699 4.99432 2.84801 4.69318 3.25426 4.47727C3.66335 4.26136 4.12216 4.15341 4.63068 4.15341C5.14205 4.15341 5.59517 4.26136 5.99006 4.47727C6.38494 4.69318 6.6946 4.98437 6.91903 5.35085C7.14347 5.71733 7.25568 6.125 7.25568 6.57386C7.25568 6.89489 7.19744 7.20881 7.08097 7.51562C6.96733 7.8196 6.76847 8.15909 6.48438 8.53409C6.20312 8.90625 5.8125 9.3608 5.3125 9.89773L3.35227 11.9943V12.0625H7.40909V13H1.90341ZM12.0156 13.1193C11.3736 13.1193 10.8267 12.9446 10.375 12.5952C9.9233 12.2429 9.57813 11.733 9.33949 11.0653C9.10085 10.3949 8.98153 9.58523 8.98153 8.63636C8.98153 7.69318 9.10085 6.88778 9.33949 6.22017C9.58097 5.54972 9.92756 5.03835 10.3793 4.68608C10.8338 4.33097 11.3793 4.15341 12.0156 4.15341C12.652 4.15341 13.196 4.33097 13.6477 4.68608C14.1023 5.03835 14.4489 5.54972 14.6875 6.22017C14.929 6.88778 15.0497 7.69318 15.0497 8.63636C15.0497 9.58523 14.9304 10.3949 14.6918 11.0653C14.4531 11.733 14.108 12.2429 13.6562 12.5952C13.2045 12.9446 12.6577 13.1193 12.0156 13.1193ZM12.0156 12.1818C12.652 12.1818 13.1463 11.875 13.4986 11.2614C13.8509 10.6477 14.027 9.77273 14.027 8.63636C14.027 7.88068 13.946 7.23722 13.7841 6.70597C13.625 6.17472 13.3949 5.76989 13.0938 5.49148C12.7955 5.21307 12.4361 5.07386 12.0156 5.07386C11.3849 5.07386 10.892 5.38494 10.5369 6.0071C10.1818 6.62642 10.0043 7.50284 10.0043 8.63636C10.0043 9.39205 10.0838 10.0341 10.2429 10.5625C10.402 11.0909 10.6307 11.4929 10.929 11.7685C11.2301 12.044 11.5923 12.1818 12.0156 12.1818ZM19.5156 13.1193C18.8736 13.1193 18.3267 12.9446 17.875 12.5952C17.4233 12.2429 17.0781 11.733 16.8395 11.0653C16.6009 10.3949 16.4815 9.58523 16.4815 8.63636C16.4815 7.69318 16.6009 6.88778 16.8395 6.22017C17.081 5.54972 17.4276 5.03835 17.8793 4.68608C18.3338 4.33097 18.8793 4.15341 19.5156 4.15341C20.152 4.15341 20.696 4.33097 21.1477 4.68608C21.6023 5.03835 21.9489 5.54972 22.1875 6.22017C22.429 6.88778 22.5497 7.69318 22.5497 8.63636C22.5497 9.58523 22.4304 10.3949 22.1918 11.0653C21.9531 11.733 21.608 12.2429 21.1562 12.5952C20.7045 12.9446 20.1577 13.1193 19.5156 13.1193ZM19.5156 12.1818C20.152 12.1818 20.6463 11.875 20.9986 11.2614C21.3509 10.6477 21.527 9.77273 21.527 8.63636C21.527 7.88068 21.446 7.23722 21.2841 6.70597C21.125 6.17472 20.8949 5.76989 20.5938 5.49148C20.2955 5.21307 19.9361 5.07386 19.5156 5.07386C18.8849 5.07386 18.392 5.38494 18.0369 6.0071C17.6818 6.62642 17.5043 7.50284 17.5043 8.63636C17.5043 9.39205 17.5838 10.0341 17.7429 10.5625C17.902 11.0909 18.1307 11.4929 18.429 11.7685C18.7301 12.044 19.0923 12.1818 19.5156 12.1818ZM26.8452 13.1364C26.2315 13.1364 25.7031 12.9915 25.2599 12.7017C24.8168 12.4119 24.4759 12.0128 24.2372 11.5043C23.9986 10.9957 23.8793 10.4148 23.8793 9.76136C23.8793 9.09659 24.0014 8.50994 24.2457 8.00142C24.4929 7.49006 24.8366 7.09091 25.277 6.80398C25.7202 6.5142 26.2372 6.36932 26.8281 6.36932C27.2884 6.36932 27.7031 6.45455 28.0724 6.625C28.4418 6.79545 28.7443 7.03409 28.9801 7.34091C29.2159 7.64773 29.3622 8.00568 29.419 8.41477H28.4134C28.3366 8.11648 28.1662 7.85227 27.902 7.62216C27.6406 7.3892 27.2884 7.27273 26.8452 7.27273C26.4531 7.27273 26.1094 7.375 25.8139 7.57955C25.5213 7.78125 25.2926 8.06676 25.1278 8.43608C24.9659 8.80256 24.8849 9.23295 24.8849 9.72727C24.8849 10.233 24.9645 10.6733 25.1236 11.0483C25.2855 11.4233 25.5128 11.7145 25.8054 11.9219C26.1009 12.1293 26.4474 12.233 26.8452 12.233C27.1065 12.233 27.3438 12.1875 27.5568 12.0966C27.7699 12.0057 27.9503 11.875 28.098 11.7045C28.2457 11.5341 28.3509 11.3295 28.4134 11.0909H29.419C29.3622 11.4773 29.2216 11.8253 28.9972 12.1349C28.7756 12.4418 28.4815 12.6861 28.1151 12.8679C27.7514 13.0469 27.3281 13.1364 26.8452 13.1364ZM30.8892 13V6.45455H31.8608V7.47727H31.946C32.0824 7.12784 32.3026 6.85653 32.6065 6.66335C32.9105 6.46733 33.2756 6.36932 33.7017 6.36932C34.1335 6.36932 34.4929 6.46733 34.7798 6.66335C35.0696 6.85653 35.2955 7.12784 35.4574 7.47727H35.5256C35.6932 7.1392 35.9446 6.87074 36.2798 6.67188C36.6151 6.47017 37.017 6.36932 37.4858 6.36932C38.071 6.36932 38.5497 6.55256 38.9219 6.91903C39.294 7.28267 39.4801 7.84943 39.4801 8.61932V13H38.4744V8.61932C38.4744 8.13636 38.3423 7.79119 38.0781 7.58381C37.8139 7.37642 37.5028 7.27273 37.1449 7.27273C36.6847 7.27273 36.3281 7.41193 36.0753 7.69034C35.8224 7.96591 35.696 8.31534 35.696 8.73864V13H34.6733V8.51705C34.6733 8.14489 34.5526 7.84517 34.3111 7.6179C34.0696 7.38778 33.7585 7.27273 33.3778 7.27273C33.1165 7.27273 32.8722 7.34233 32.6449 7.48153C32.4205 7.62074 32.2386 7.81392 32.0994 8.06108C31.9631 8.3054 31.8949 8.58807 31.8949 8.90909V13H30.8892Z" fill="black"/>
<path d="M4.97159 162.273V171H3.91477V163.381H3.86364L1.73295 164.795V163.722L3.91477 162.273H4.97159ZM10.3793 171.119C10.0213 171.114 9.66335 171.045 9.3054 170.915C8.94744 170.784 8.62074 170.564 8.32528 170.254C8.02983 169.942 7.79261 169.52 7.61364 168.989C7.43466 168.455 7.34517 167.784 7.34517 166.977C7.34517 166.205 7.41761 165.52 7.5625 164.923C7.70739 164.324 7.91761 163.82 8.19318 163.411C8.46875 162.999 8.80114 162.686 9.19034 162.473C9.58239 162.26 10.0241 162.153 10.5156 162.153C11.0043 162.153 11.4389 162.251 11.8196 162.447C12.2031 162.641 12.5156 162.911 12.7571 163.257C12.9986 163.604 13.1548 164.003 13.2259 164.455H12.1861C12.0895 164.062 11.902 163.737 11.6236 163.479C11.3452 163.22 10.9759 163.091 10.5156 163.091C9.83949 163.091 9.30682 163.385 8.91761 163.973C8.53125 164.561 8.33665 165.386 8.33381 166.449H8.40199C8.56108 166.207 8.75 166.001 8.96875 165.831C9.19034 165.658 9.43466 165.524 9.7017 165.43C9.96875 165.337 10.2514 165.29 10.5497 165.29C11.0497 165.29 11.5071 165.415 11.9219 165.665C12.3366 165.912 12.669 166.254 12.919 166.692C13.169 167.126 13.294 167.625 13.294 168.188C13.294 168.727 13.1733 169.222 12.9318 169.67C12.6903 170.116 12.3509 170.472 11.9134 170.736C11.4787 170.997 10.9673 171.125 10.3793 171.119ZM10.3793 170.182C10.7372 170.182 11.0582 170.092 11.3423 169.913C11.6293 169.734 11.8551 169.494 12.0199 169.193C12.1875 168.892 12.2713 168.557 12.2713 168.188C12.2713 167.827 12.1903 167.499 12.0284 167.203C11.8693 166.905 11.6491 166.668 11.3679 166.491C11.0895 166.315 10.7713 166.227 10.4134 166.227C10.1435 166.227 9.89205 166.281 9.65909 166.389C9.42614 166.494 9.22159 166.639 9.04545 166.824C8.87216 167.009 8.7358 167.22 8.63636 167.459C8.53693 167.695 8.48722 167.943 8.48722 168.205C8.48722 168.551 8.56818 168.875 8.73011 169.176C8.89489 169.477 9.11932 169.72 9.40341 169.905C9.69034 170.089 10.0156 170.182 10.3793 170.182ZM17.8164 171.119C17.1744 171.119 16.6275 170.945 16.1758 170.595C15.7241 170.243 15.3789 169.733 15.1403 169.065C14.9016 168.395 14.7823 167.585 14.7823 166.636C14.7823 165.693 14.9016 164.888 15.1403 164.22C15.3817 163.55 15.7283 163.038 16.18 162.686C16.6346 162.331 17.18 162.153 17.8164 162.153C18.4528 162.153 18.9968 162.331 19.4485 162.686C19.9031 163.038 20.2496 163.55 20.4883 164.22C20.7298 164.888 20.8505 165.693 20.8505 166.636C20.8505 167.585 20.7312 168.395 20.4925 169.065C20.2539 169.733 19.9087 170.243 19.457 170.595C19.0053 170.945 18.4585 171.119 17.8164 171.119ZM17.8164 170.182C18.4528 170.182 18.9471 169.875 19.2994 169.261C19.6516 168.648 19.8278 167.773 19.8278 166.636C19.8278 165.881 19.7468 165.237 19.5849 164.706C19.4258 164.175 19.1957 163.77 18.8945 163.491C18.5962 163.213 18.2369 163.074 17.8164 163.074C17.1857 163.074 16.6928 163.385 16.3377 164.007C15.9826 164.626 15.805 165.503 15.805 166.636C15.805 167.392 15.8846 168.034 16.0437 168.562C16.2028 169.091 16.4315 169.493 16.7298 169.768C17.0309 170.044 17.3931 170.182 17.8164 170.182ZM25.146 171.136C24.5323 171.136 24.0039 170.991 23.5607 170.702C23.1175 170.412 22.7766 170.013 22.538 169.504C22.2994 168.996 22.18 168.415 22.18 167.761C22.18 167.097 22.3022 166.51 22.5465 166.001C22.7937 165.49 23.1374 165.091 23.5778 164.804C24.021 164.514 24.538 164.369 25.1289 164.369C25.5891 164.369 26.0039 164.455 26.3732 164.625C26.7425 164.795 27.0451 165.034 27.2809 165.341C27.5167 165.648 27.663 166.006 27.7198 166.415H26.7141C26.6374 166.116 26.467 165.852 26.2028 165.622C25.9414 165.389 25.5891 165.273 25.146 165.273C24.7539 165.273 24.4102 165.375 24.1147 165.58C23.8221 165.781 23.5934 166.067 23.4286 166.436C23.2667 166.803 23.1857 167.233 23.1857 167.727C23.1857 168.233 23.2653 168.673 23.4244 169.048C23.5863 169.423 23.8136 169.714 24.1062 169.922C24.4016 170.129 24.7482 170.233 25.146 170.233C25.4073 170.233 25.6445 170.188 25.8576 170.097C26.0707 170.006 26.2511 169.875 26.3988 169.705C26.5465 169.534 26.6516 169.33 26.7141 169.091H27.7198C27.663 169.477 27.5224 169.825 27.2979 170.135C27.0763 170.442 26.7823 170.686 26.4158 170.868C26.0522 171.047 25.6289 171.136 25.146 171.136ZM29.19 171V164.455H30.1616V165.477H30.2468C30.3832 165.128 30.6033 164.857 30.9073 164.663C31.2113 164.467 31.5763 164.369 32.0025 164.369C32.4343 164.369 32.7937 164.467 33.0806 164.663C33.3704 164.857 33.5962 165.128 33.7582 165.477H33.8263C33.994 165.139 34.2454 164.871 34.5806 164.672C34.9158 164.47 35.3178 164.369 35.7866 164.369C36.3718 164.369 36.8505 164.553 37.2227 164.919C37.5948 165.283 37.7809 165.849 37.7809 166.619V171H36.7752V166.619C36.7752 166.136 36.6431 165.791 36.3789 165.584C36.1147 165.376 35.8036 165.273 35.4457 165.273C34.9854 165.273 34.6289 165.412 34.3761 165.69C34.1232 165.966 33.9968 166.315 33.9968 166.739V171H32.9741V166.517C32.9741 166.145 32.8533 165.845 32.6119 165.618C32.3704 165.388 32.0593 165.273 31.6786 165.273C31.4173 165.273 31.1729 165.342 30.9457 165.482C30.7212 165.621 30.5394 165.814 30.4002 166.061C30.2638 166.305 30.1957 166.588 30.1957 166.909V171H29.19Z" fill="black"/>
<path d="M7.97159 260.273V269H6.91477V261.381H6.86364L4.73295 262.795V261.722L6.91477 260.273H7.97159ZM13.3281 269.119C12.6861 269.119 12.1392 268.945 11.6875 268.595C11.2358 268.243 10.8906 267.733 10.652 267.065C10.4134 266.395 10.294 265.585 10.294 264.636C10.294 263.693 10.4134 262.888 10.652 262.22C10.8935 261.55 11.2401 261.038 11.6918 260.686C12.1463 260.331 12.6918 260.153 13.3281 260.153C13.9645 260.153 14.5085 260.331 14.9602 260.686C15.4148 261.038 15.7614 261.55 16 262.22C16.2415 262.888 16.3622 263.693 16.3622 264.636C16.3622 265.585 16.2429 266.395 16.0043 267.065C15.7656 267.733 15.4205 268.243 14.9688 268.595C14.517 268.945 13.9702 269.119 13.3281 269.119ZM13.3281 268.182C13.9645 268.182 14.4588 267.875 14.8111 267.261C15.1634 266.648 15.3395 265.773 15.3395 264.636C15.3395 263.881 15.2585 263.237 15.0966 262.706C14.9375 262.175 14.7074 261.77 14.4062 261.491C14.108 261.213 13.7486 261.074 13.3281 261.074C12.6974 261.074 12.2045 261.385 11.8494 262.007C11.4943 262.626 11.3168 263.503 11.3168 264.636C11.3168 265.392 11.3963 266.034 11.5554 266.562C11.7145 267.091 11.9432 267.493 12.2415 267.768C12.5426 268.044 12.9048 268.182 13.3281 268.182ZM20.8281 269.119C20.1861 269.119 19.6392 268.945 19.1875 268.595C18.7358 268.243 18.3906 267.733 18.152 267.065C17.9134 266.395 17.794 265.585 17.794 264.636C17.794 263.693 17.9134 262.888 18.152 262.22C18.3935 261.55 18.7401 261.038 19.1918 260.686C19.6463 260.331 20.1918 260.153 20.8281 260.153C21.4645 260.153 22.0085 260.331 22.4602 260.686C22.9148 261.038 23.2614 261.55 23.5 262.22C23.7415 262.888 23.8622 263.693 23.8622 264.636C23.8622 265.585 23.7429 266.395 23.5043 267.065C23.2656 267.733 22.9205 268.243 22.4688 268.595C22.017 268.945 21.4702 269.119 20.8281 269.119ZM20.8281 268.182C21.4645 268.182 21.9588 267.875 22.3111 267.261C22.6634 266.648 22.8395 265.773 22.8395 264.636C22.8395 263.881 22.7585 263.237 22.5966 262.706C22.4375 262.175 22.2074 261.77 21.9062 261.491C21.608 261.213 21.2486 261.074 20.8281 261.074C20.1974 261.074 19.7045 261.385 19.3494 262.007C18.9943 262.626 18.8168 263.503 18.8168 264.636C18.8168 265.392 18.8963 266.034 19.0554 266.562C19.2145 267.091 19.4432 267.493 19.7415 267.768C20.0426 268.044 20.4048 268.182 20.8281 268.182ZM28.1577 269.136C27.544 269.136 27.0156 268.991 26.5724 268.702C26.1293 268.412 25.7884 268.013 25.5497 267.504C25.3111 266.996 25.1918 266.415 25.1918 265.761C25.1918 265.097 25.3139 264.51 25.5582 264.001C25.8054 263.49 26.1491 263.091 26.5895 262.804C27.0327 262.514 27.5497 262.369 28.1406 262.369C28.6009 262.369 29.0156 262.455 29.3849 262.625C29.7543 262.795 30.0568 263.034 30.2926 263.341C30.5284 263.648 30.6747 264.006 30.7315 264.415H29.7259C29.6491 264.116 29.4787 263.852 29.2145 263.622C28.9531 263.389 28.6009 263.273 28.1577 263.273C27.7656 263.273 27.4219 263.375 27.1264 263.58C26.8338 263.781 26.6051 264.067 26.4403 264.436C26.2784 264.803 26.1974 265.233 26.1974 265.727C26.1974 266.233 26.277 266.673 26.4361 267.048C26.598 267.423 26.8253 267.714 27.1179 267.922C27.4134 268.129 27.7599 268.233 28.1577 268.233C28.419 268.233 28.6562 268.188 28.8693 268.097C29.0824 268.006 29.2628 267.875 29.4105 267.705C29.5582 267.534 29.6634 267.33 29.7259 267.091H30.7315C30.6747 267.477 30.5341 267.825 30.3097 268.135C30.0881 268.442 29.794 268.686 29.4276 268.868C29.0639 269.047 28.6406 269.136 28.1577 269.136ZM32.2017 269V262.455H33.1733V263.477H33.2585C33.3949 263.128 33.6151 262.857 33.919 262.663C34.223 262.467 34.5881 262.369 35.0142 262.369C35.446 262.369 35.8054 262.467 36.0923 262.663C36.3821 262.857 36.608 263.128 36.7699 263.477H36.8381C37.0057 263.139 37.2571 262.871 37.5923 262.672C37.9276 262.47 38.3295 262.369 38.7983 262.369C39.3835 262.369 39.8622 262.553 40.2344 262.919C40.6065 263.283 40.7926 263.849 40.7926 264.619V269H39.7869V264.619C39.7869 264.136 39.6548 263.791 39.3906 263.584C39.1264 263.376 38.8153 263.273 38.4574 263.273C37.9972 263.273 37.6406 263.412 37.3878 263.69C37.1349 263.966 37.0085 264.315 37.0085 264.739V269H35.9858V264.517C35.9858 264.145 35.8651 263.845 35.6236 263.618C35.3821 263.388 35.071 263.273 34.6903 263.273C34.429 263.273 34.1847 263.342 33.9574 263.482C33.733 263.621 33.5511 263.814 33.4119 264.061C33.2756 264.305 33.2074 264.588 33.2074 264.909V269H32.2017Z" fill="black"/>
<line x1="1" y1="352.5" x2="26" y2="352.5" stroke="black"/>
<path d="M4.63068 365.119C4.13068 365.119 3.6804 365.02 3.27983 364.821C2.87926 364.622 2.55824 364.349 2.31676 364.003C2.07528 363.656 1.94318 363.261 1.92045 362.818H2.94318C2.98295 363.213 3.16193 363.54 3.48011 363.798C3.80114 364.054 4.18466 364.182 4.63068 364.182C4.98864 364.182 5.30682 364.098 5.58523 363.93C5.86648 363.763 6.08665 363.533 6.24574 363.24C6.40767 362.945 6.48864 362.611 6.48864 362.239C6.48864 361.858 6.40483 361.518 6.23722 361.22C6.07244 360.919 5.84517 360.682 5.5554 360.509C5.26563 360.335 4.93466 360.247 4.5625 360.244C4.29545 360.241 4.02131 360.283 3.74006 360.368C3.45881 360.45 3.22727 360.557 3.04545 360.688L2.05682 360.568L2.58523 356.273H7.11932V357.21H3.47159L3.16477 359.784H3.21591C3.39489 359.642 3.61932 359.524 3.8892 359.43C4.15909 359.337 4.44034 359.29 4.73295 359.29C5.26705 359.29 5.7429 359.418 6.16051 359.673C6.58097 359.926 6.91051 360.273 7.14915 360.713C7.39062 361.153 7.51136 361.656 7.51136 362.222C7.51136 362.778 7.38636 363.276 7.13636 363.713C6.8892 364.148 6.5483 364.491 6.11364 364.744C5.67898 364.994 5.18466 365.119 4.63068 365.119ZM12.0508 365.119C11.4087 365.119 10.8619 364.945 10.4102 364.595C9.95845 364.243 9.61328 363.733 9.37464 363.065C9.13601 362.395 9.01669 361.585 9.01669 360.636C9.01669 359.693 9.13601 358.888 9.37464 358.22C9.61612 357.55 9.96271 357.038 10.4144 356.686C10.869 356.331 11.4144 356.153 12.0508 356.153C12.6871 356.153 13.2312 356.331 13.6829 356.686C14.1374 357.038 14.484 357.55 14.7227 358.22C14.9641 358.888 15.0849 359.693 15.0849 360.636C15.0849 361.585 14.9656 362.395 14.7269 363.065C14.4883 363.733 14.1431 364.243 13.6914 364.595C13.2397 364.945 12.6928 365.119 12.0508 365.119ZM12.0508 364.182C12.6871 364.182 13.1815 363.875 13.5337 363.261C13.886 362.648 14.0621 361.773 14.0621 360.636C14.0621 359.881 13.9812 359.237 13.8192 358.706C13.6602 358.175 13.43 357.77 13.1289 357.491C12.8306 357.213 12.4712 357.074 12.0508 357.074C11.4201 357.074 10.9272 357.385 10.5721 358.007C10.217 358.626 10.0394 359.503 10.0394 360.636C10.0394 361.392 10.119 362.034 10.2781 362.562C10.4371 363.091 10.6658 363.493 10.9641 363.768C11.2653 364.044 11.6275 364.182 12.0508 364.182ZM19.3803 365.136C18.7667 365.136 18.2383 364.991 17.7951 364.702C17.3519 364.412 17.011 364.013 16.7724 363.504C16.5337 362.996 16.4144 362.415 16.4144 361.761C16.4144 361.097 16.5366 360.51 16.7809 360.001C17.0281 359.49 17.3718 359.091 17.8121 358.804C18.2553 358.514 18.7724 358.369 19.3633 358.369C19.8235 358.369 20.2383 358.455 20.6076 358.625C20.9769 358.795 21.2795 359.034 21.5153 359.341C21.7511 359.648 21.8974 360.006 21.9542 360.415H20.9485C20.8718 360.116 20.7013 359.852 20.4371 359.622C20.1758 359.389 19.8235 359.273 19.3803 359.273C18.9883 359.273 18.6445 359.375 18.3491 359.58C18.0565 359.781 17.8278 360.067 17.663 360.436C17.5011 360.803 17.4201 361.233 17.4201 361.727C17.4201 362.233 17.4996 362.673 17.6587 363.048C17.8207 363.423 18.0479 363.714 18.3406 363.922C18.636 364.129 18.9826 364.233 19.3803 364.233C19.6417 364.233 19.8789 364.188 20.092 364.097C20.305 364.006 20.4854 363.875 20.6332 363.705C20.7809 363.534 20.886 363.33 20.9485 363.091H21.9542C21.8974 363.477 21.7567 363.825 21.5323 364.135C21.3107 364.442 21.0167 364.686 20.6502 364.868C20.2866 365.047 19.8633 365.136 19.3803 365.136ZM23.4244 365V358.455H24.396V359.477H24.4812C24.6175 359.128 24.8377 358.857 25.1417 358.663C25.4457 358.467 25.8107 358.369 26.2369 358.369C26.6687 358.369 27.0281 358.467 27.315 358.663C27.6048 358.857 27.8306 359.128 27.9925 359.477H28.0607C28.2283 359.139 28.4798 358.871 28.815 358.672C29.1502 358.47 29.5522 358.369 30.021 358.369C30.6062 358.369 31.0849 358.553 31.457 358.919C31.8292 359.283 32.0153 359.849 32.0153 360.619V365H31.0096V360.619C31.0096 360.136 30.8775 359.791 30.6133 359.584C30.3491 359.376 30.038 359.273 29.68 359.273C29.2198 359.273 28.8633 359.412 28.6104 359.69C28.3576 359.966 28.2312 360.315 28.2312 360.739V365H27.2085V360.517C27.2085 360.145 27.0877 359.845 26.8462 359.618C26.6048 359.388 26.2937 359.273 25.913 359.273C25.6516 359.273 25.4073 359.342 25.18 359.482C24.9556 359.621 24.7738 359.814 24.6346 360.061C24.4982 360.305 24.43 360.588 24.43 360.909V365H23.4244Z" fill="black"/>
</svg>
